<svg id="instagram" xmlns="http://www.w3.org/2000/svg" width="33.722" height="33.722" viewBox="0 0 33.722 33.722">
  <path id="Caminho_60" data-name="Caminho 60" d="M213.455,210.227A3.227,3.227,0,1,1,210.227,207,3.227,3.227,0,0,1,213.455,210.227Zm0,0" transform="translate(-193.366 -193.366)" fill="#fff"/>
  <path id="Caminho_61" data-name="Caminho 61" d="M150.969,137.716a3.206,3.206,0,0,0-1.837-1.837,5.357,5.357,0,0,0-1.8-.333c-1.021-.047-1.327-.057-3.912-.057s-2.892.01-3.912.056a5.36,5.36,0,0,0-1.8.333,3.208,3.208,0,0,0-1.838,1.837,5.359,5.359,0,0,0-.333,1.8c-.047,1.021-.057,1.327-.057,3.912s.01,2.891.057,3.912a5.357,5.357,0,0,0,.333,1.8,3.206,3.206,0,0,0,1.837,1.837,5.35,5.35,0,0,0,1.8.333c1.021.047,1.327.056,3.912.056s2.892-.01,3.912-.056a5.349,5.349,0,0,0,1.8-.333,3.206,3.206,0,0,0,1.837-1.837,5.362,5.362,0,0,0,.333-1.8c.047-1.021.056-1.327.056-3.912s-.01-2.892-.056-3.912A5.351,5.351,0,0,0,150.969,137.716ZM143.422,148.4a4.972,4.972,0,1,1,4.972-4.972A4.972,4.972,0,0,1,143.422,148.4Zm5.168-8.978a1.162,1.162,0,1,1,1.162-1.162A1.162,1.162,0,0,1,148.59,139.419Zm0,0" transform="translate(-126.561 -126.565)" fill="#fff"/>
  <path id="Caminho_62" data-name="Caminho 62" d="M16.861,0A16.861,16.861,0,1,0,33.722,16.861,16.863,16.863,0,0,0,16.861,0Zm9.623,20.853a7.1,7.1,0,0,1-.45,2.35A4.951,4.951,0,0,1,23.2,26.034a7.108,7.108,0,0,1-2.35.45c-1.032.047-1.362.058-3.992.058s-2.959-.011-3.992-.058a7.108,7.108,0,0,1-2.35-.45A4.951,4.951,0,0,1,7.688,23.2a7.1,7.1,0,0,1-.45-2.35c-.048-1.033-.059-1.363-.059-3.992s.011-2.959.058-3.992a7.1,7.1,0,0,1,.45-2.35,4.954,4.954,0,0,1,2.832-2.832,7.11,7.11,0,0,1,2.35-.45c1.032-.047,1.362-.058,3.992-.058s2.959.011,3.992.059a7.111,7.111,0,0,1,2.35.449,4.952,4.952,0,0,1,2.832,2.832,7.1,7.1,0,0,1,.45,2.35c.047,1.032.058,1.362.058,3.992S26.532,19.82,26.484,20.853Zm0,0" fill="#fff"/>
</svg>
