<svg xmlns="http://www.w3.org/2000/svg" width="35.356" height="35.355" viewBox="0 0 35.356 35.355">
  <path id="twitter" d="M17.678,0A17.678,17.678,0,1,0,35.356,17.678,17.68,17.68,0,0,0,17.678,0Zm8.071,13.783q.012.261.012.524A11.466,11.466,0,0,1,14.216,25.852h0A11.485,11.485,0,0,1,8,24.03a8.252,8.252,0,0,0,.968.056A8.142,8.142,0,0,0,14,22.349a4.062,4.062,0,0,1-3.791-2.818,4.044,4.044,0,0,0,1.833-.07,4.059,4.059,0,0,1-3.255-3.977c0-.018,0-.035,0-.052a4.03,4.03,0,0,0,1.838.507,4.061,4.061,0,0,1-1.256-5.417,11.52,11.52,0,0,0,8.364,4.24,4.06,4.06,0,0,1,6.914-3.7,8.138,8.138,0,0,0,2.577-.985,4.073,4.073,0,0,1-1.784,2.244,8.092,8.092,0,0,0,2.33-.639A8.246,8.246,0,0,1,25.749,13.783Zm0,0" fill="#fff"/>
</svg>
