<svg id="facebook" xmlns="http://www.w3.org/2000/svg" width="33.722" height="33.722" viewBox="0 0 33.722 33.722">
  <path id="Caminho_45" data-name="Caminho 45" d="M291.278,508.668q-.211.034-.423.063Q291.068,508.7,291.278,508.668Zm0,0" transform="translate(-271.699 -475.166)" fill="#a3d3c2"/>
  <path id="Caminho_46" data-name="Caminho 46" d="M299.541,507.793l-.2.035Zm0,0" transform="translate(-279.624 -474.348)" fill="#a3d3c2"/>
  <path id="Caminho_47" data-name="Caminho 47" d="M278.105,510.34q-.247.028-.5.049Q277.858,510.368,278.105,510.34Zm0,0" transform="translate(-259.325 -476.727)" fill="#a3d3c2"/>
  <path id="Caminho_48" data-name="Caminho 48" d="M286.683,509.738l-.238.03Zm0,0" transform="translate(-267.579 -476.165)" fill="#a3d3c2"/>
  <path id="Caminho_49" data-name="Caminho 49" d="M306.842,506.41l-.178.037Zm0,0" transform="translate(-286.466 -473.056)" fill="#a3d3c2"/>
  <path id="Caminho_50" data-name="Caminho 50" d="M324.628,502.113l-.144.04Zm0,0" transform="translate(-303.113 -469.043)" fill="#a3d3c2"/>
  <path id="Caminho_51" data-name="Caminho 51" d="M319.215,503.543l-.156.041Zm0,0" transform="translate(-298.044 -470.378)" fill="#a3d3c2"/>
  <path id="Caminho_52" data-name="Caminho 52" d="M312.233,505.254l-.166.037Zm0,0" transform="translate(-291.513 -471.976)" fill="#a3d3c2"/>
  <path id="Caminho_53" data-name="Caminho 53" d="M273.747,511.09l-.267.02Zm0,0" transform="translate(-255.468 -477.428)" fill="#a3d3c2"/>
  <path id="Caminho_54" data-name="Caminho 54" d="M33.722,16.861A16.861,16.861,0,1,0,16.861,33.722c.1,0,.2,0,.3,0V20.592H13.535V16.371h3.622V13.264c0-3.6,2.2-5.564,5.413-5.564a29.819,29.819,0,0,1,3.248.166v3.766H23.6c-1.748,0-2.087.831-2.087,2.05v2.689H25.7l-.545,4.222H21.515V33.07A16.87,16.87,0,0,0,33.722,16.861Zm0,0" fill="#fff"/>
  <path id="Caminho_55" data-name="Caminho 55" d="M265.419,511.43q-.263.017-.528.026Q265.156,511.447,265.419,511.43Zm0,0" transform="translate(-247.444 -477.745)" fill="#a3d3c2"/>
  <path id="Caminho_56" data-name="Caminho 56" d="M260.784,511.836l-.28.007Zm0,0" transform="translate(-243.346 -478.125)" fill="#a3d3c2"/>
</svg>
