<svg id="Grupo_450" data-name="Grupo 450" xmlns="http://www.w3.org/2000/svg" width="32.232" height="32.232" viewBox="0 0 32.232 32.232">
  <ellipse id="Elipse_26" data-name="Elipse 26" cx="16.116" cy="16.116" rx="16.116" ry="16.116" fill="#fff"/>
  <g id="linkedin" transform="translate(9.153 8.566)">
    <path id="Caminho_57" data-name="Caminho 57" d="M18.309,17.977h0V12.4c0-2.727-.587-4.828-3.775-4.828a3.31,3.31,0,0,0-2.981,1.638h-.044V7.829H8.489V17.977h3.148V12.952c0-1.323.251-2.6,1.889-2.6,1.614,0,1.638,1.51,1.638,2.687v4.941Z" transform="translate(-3.113 -2.777)" fill="#36b497"/>
    <path id="Caminho_58" data-name="Caminho 58" d="M.4,7.977H3.547V18.125H.4Z" transform="translate(-0.145 -2.925)" fill="#36b497"/>
    <path id="Caminho_59" data-name="Caminho 59" d="M1.825,0A1.834,1.834,0,1,0,3.651,1.825,1.826,1.826,0,0,0,1.825,0Z" transform="translate(0 0)" fill="#36b497"/>
  </g>
</svg>
