<svg xmlns="http://www.w3.org/2000/svg" width="36.289" height="36.092" viewBox="0 0 36.289 36.092">
  <g id="hello" transform="translate(0.658 0.5)">
    <path id="Caminho_41" data-name="Caminho 41" d="M94.807,432.132c-.342,0-.465-.248-.611-.5a.548.548,0,1,1,.946-.554c.049.083.089.149.126.207A.549.549,0,0,1,94.807,432.132Z" transform="translate(-87.67 -401.285)" fill="#36b497" stroke="#36b497" stroke-width="1"/>
    <path id="Caminho_42" data-name="Caminho 42" d="M16.748,35.123H14.8a9.545,9.545,0,0,1-6.69-2.717.548.548,0,0,1,.765-.786A8.454,8.454,0,0,0,14.8,34.026h1.943A9.26,9.26,0,0,0,23.335,31.3L33.552,20.535a1.391,1.391,0,0,0-.946-2.41,5.326,5.326,0,0,0-3.775,1.554l-2.962,3.508a1.644,1.644,0,0,1-2.839-1.13V19.142c0-.112-.238.815,3.611-13.549a1.919,1.919,0,1,0-3.71-.984L19.17,17.728a.549.549,0,0,1-1.075-.151V3.047a1.919,1.919,0,1,0-3.838,0V17.152a.549.549,0,0,1-1.078.142L9.946,5.227a1.92,1.92,0,0,0-3.774.495c0,.359-.254-.695,3.382,12.873a.549.549,0,0,1-1,.416L4.167,11.421a1.645,1.645,0,1,0-2.849,1.645L4.4,18.4a14.285,14.285,0,0,1,1.911,7.131,8.516,8.516,0,0,0,.346,2.41.548.548,0,1,1-1.052.31,9.615,9.615,0,0,1-.391-2.72,13.186,13.186,0,0,0-1.764-6.583L.368,13.614a2.742,2.742,0,0,1,4.749-2.742l2.3,3.984L5.179,6.5A3.016,3.016,0,0,1,11,4.943l2.155,8.044V3.047a3.016,3.016,0,1,1,6.031,0V13.674l2.684-9.363A3.016,3.016,0,0,1,27.7,5.877L24.126,19.214v2.843a.548.548,0,0,0,.922.4c2.063-2.443,2.966-3.514,2.991-3.539a6.416,6.416,0,0,1,4.567-1.891,2.488,2.488,0,0,1,1.737,4.266L24.115,32.071A10.35,10.35,0,0,1,16.748,35.123Z" transform="translate(-0.001 -0.031)" fill="#36b497" stroke="#36b497" stroke-width="1"/>
    <path id="Caminho_43" data-name="Caminho 43" d="M208.55,337.34a.548.548,0,0,1-.548-.548,8.794,8.794,0,0,1,7.6-8.7.548.548,0,1,1,.145,1.087,7.7,7.7,0,0,0-6.652,7.609A.548.548,0,0,1,208.55,337.34Z" transform="translate(-193.746 -305.607)" fill="#36b497" stroke="#36b497" stroke-width="1"/>
  </g>
</svg>
