<svg xmlns="http://www.w3.org/2000/svg" width="32.233" height="32.233" viewBox="0 0 32.233 32.233">
  <g id="Grupo_505" data-name="Grupo 505" transform="translate(349.955 -5520)">
    <g id="Grupo_451" data-name="Grupo 451" transform="translate(-349.955 5520)">
      <path id="Subtração_2" data-name="Subtração 2" d="M-1968.674-202.767a16.011,16.011,0,0,1-11.4-4.721,16.011,16.011,0,0,1-4.721-11.4,16.011,16.011,0,0,1,4.721-11.4,16.011,16.011,0,0,1,11.4-4.72,16.012,16.012,0,0,1,11.4,4.72,16.011,16.011,0,0,1,4.72,11.4,16.011,16.011,0,0,1-4.72,11.4A16.011,16.011,0,0,1-1968.674-202.767Zm-.12-22.641a57.1,57.1,0,0,0-7.326.386,2.4,2.4,0,0,0-1.651,1.665,24.882,24.882,0,0,0-.385,4.5,24.781,24.781,0,0,0,.385,4.5,2.347,2.347,0,0,0,1.651,1.651,55.2,55.2,0,0,0,7.327.4,57.1,57.1,0,0,0,7.326-.386,2.344,2.344,0,0,0,1.651-1.65,24.874,24.874,0,0,0,.385-4.5,23.31,23.31,0,0,0-.385-4.52,2.346,2.346,0,0,0-1.651-1.65A54.956,54.956,0,0,0-1968.794-225.409Z" transform="translate(1984.79 235)" fill="#fff"/>
    </g>
    <path id="Caminho_75" data-name="Caminho 75" d="M204.969,108.1l4.874-2.807-4.874-2.807Zm0,0" transform="translate(-540.793 5430.855)" fill="#fff"/>
  </g>
</svg>
