<svg xmlns="http://www.w3.org/2000/svg" width="22.656" height="22.468" viewBox="0 0 22.656 22.468">
  <g id="phone-call" transform="translate(-6.125 -6.219)">
    <g id="Grupo_463" data-name="Grupo 463" transform="translate(6.125 6.219)">
      <g id="Grupo_462" data-name="Grupo 462">
        <path id="Caminho_71" data-name="Caminho 71" d="M122.761,118.9l-3.573-3.56a2.079,2.079,0,0,0-2.94,0l0,0-2.047,2.047a.451.451,0,0,1-.579.051,23.6,23.6,0,0,1-5.512-5.411.445.445,0,0,1,.044-.579l2.1-2.1a2.079,2.079,0,0,0,0-2.937l-3.573-3.573a2.13,2.13,0,0,0-2.944,0l-1.132,1.132a6.358,6.358,0,0,0-1.577,6.485,19.073,19.073,0,0,0,2.327,4.718,24.731,24.731,0,0,0,7.14,7.013,18.2,18.2,0,0,0,5.29,2.352,6.124,6.124,0,0,0,1.475.178,6.434,6.434,0,0,0,4.533-1.907l.973-.973A2.079,2.079,0,0,0,122.761,118.9Zm-.9,2.07,0,0,.006-.019-.973.973a5.086,5.086,0,0,1-4.8,1.373,16.9,16.9,0,0,1-4.908-2.2,23.506,23.506,0,0,1-6.765-6.631,17.8,17.8,0,0,1-2.174-4.4,5.086,5.086,0,0,1,1.272-5.194l1.132-1.132a.807.807,0,0,1,1.142,0l0,0,3.573,3.573a.807.807,0,0,1,0,1.142l0,0-2.1,2.1a1.71,1.71,0,0,0-.178,2.225,25.045,25.045,0,0,0,5.818,5.709,1.723,1.723,0,0,0,2.2-.191l2.028-2.06a.807.807,0,0,1,1.142,0l0,0,3.58,3.586A.807.807,0,0,1,121.861,120.974Z" transform="translate(-100.712 -102.253)" fill="#fff"/>
      </g>
    </g>
  </g>
</svg>
