<svg xmlns="http://www.w3.org/2000/svg" width="19.732" height="28.063" viewBox="0 0 19.732 28.063">
  <g id="placeholder" transform="translate(-76)">
    <g id="Grupo_456" data-name="Grupo 456" transform="translate(76)">
      <g id="Grupo_455" data-name="Grupo 455">
        <path id="Caminho_67" data-name="Caminho 67" d="M85.866,0a9.868,9.868,0,0,0-8.393,15.054L85.3,27.674a.822.822,0,0,0,.7.389h.007a.822.822,0,0,0,.7-.4L94.34,14.921A9.868,9.868,0,0,0,85.866,0Zm7.063,14.076L85.99,25.662,78.87,14.187a8.227,8.227,0,1,1,14.059-.111Z" transform="translate(-76)" fill="#fff"/>
      </g>
    </g>
    <g id="Grupo_458" data-name="Grupo 458" transform="translate(80.933 4.933)">
      <g id="Grupo_457" data-name="Grupo 457">
        <path id="Caminho_68" data-name="Caminho 68" d="M170.933,90a4.933,4.933,0,1,0,4.933,4.933A4.939,4.939,0,0,0,170.933,90Zm0,8.233a3.3,3.3,0,1,1,3.294-3.3A3.3,3.3,0,0,1,170.933,98.233Z" transform="translate(-166 -90)" fill="#fff"/>
      </g>
    </g>
  </g>
</svg>
