<svg xmlns="http://www.w3.org/2000/svg" width="35.193" height="35.194" viewBox="0 0 35.193 35.194">
  <path id="Subtração_3" data-name="Subtração 3" d="M-1507.3-4606.806a17.483,17.483,0,0,1-12.443-5.154,17.482,17.482,0,0,1-5.154-12.443,17.482,17.482,0,0,1,5.154-12.443A17.483,17.483,0,0,1-1507.3-4642a17.481,17.481,0,0,1,12.442,5.154,17.483,17.483,0,0,1,5.154,12.443,17.483,17.483,0,0,1-5.154,12.443A17.481,17.481,0,0,1-1507.3-4606.806Zm3.766-17.574c1.789,0,1.789,1.7,1.789,2.935v5.394h3.433l0-6.087c0-2.738-.5-5.271-4.123-5.271a3.625,3.625,0,0,0-3.254,1.79h-.049v-1.512h-3.3v11.082h3.437v-5.487C-1505.6-4622.943-1505.355-4624.38-1503.538-4624.38Zm-11.1-2.752v11.081h3.441v-11.081Zm1.718-5.516a2,2,0,0,0-1.992,1.993,2,2,0,0,0,1.992,2.012,2.006,2.006,0,0,0,1.995-2.012A2,2,0,0,0-1512.915-4632.648Z" transform="translate(1524.901 4642)" fill="#fff"/>
</svg>
