<svg xmlns="http://www.w3.org/2000/svg" width="24.758" height="18.858" viewBox="0 0 24.758 18.858">
  <g id="email" transform="translate(0 -61)">
    <g id="Grupo_459" data-name="Grupo 459" transform="translate(0 61)">
      <path id="Caminho_69" data-name="Caminho 69" d="M22.582,61H2.176A2.18,2.18,0,0,0,0,63.176V77.683a2.18,2.18,0,0,0,2.176,2.176H22.582a2.18,2.18,0,0,0,2.176-2.176V63.176A2.18,2.18,0,0,0,22.582,61Zm-.3,1.451-9.856,9.856L2.483,62.451ZM1.451,77.382V63.469L8.437,70.4Zm1.026,1.026,6.991-6.991,2.45,2.428a.725.725,0,0,0,1.024,0l2.388-2.388,6.953,6.953Zm20.831-1.026-6.953-6.953,6.953-6.953Z" transform="translate(0 -61)" fill="#fff"/>
    </g>
  </g>
</svg>
